<?xml version="1.0" encoding="UTF-8"?>
<!DOCTYPE svg PUBLIC "-//W3C//DTD SVG 1.1//EN" "http://www.w3.org/Graphics/SVG/1.1/DTD/svg11.dtd">
<svg version="1.1" xmlns="http://www.w3.org/2000/svg" xmlns:xlink="http://www.w3.org/1999/xlink" x="0" y="0" width="1024" height="896" viewBox="0, 0, 512, 448">
  <g id="Background">
    <rect x="0" y="0" width="512" height="448" fill="#000000" fill-opacity="0"/>
  </g>
  <g id="Layer_1">
    <path d="M160,32 L160,96 L480,96 L480,64 C480,46.3 465.7,32 448,32 L160,32 z M128,32 L64,32 C46.3,32 32,46.3 32,64 L32,96 L128,96 L128,32 z M32,128 L32,384 C32,401.7 46.3,416 64,416 L448,416 C465.7,416 480,401.7 480,384 L480,128 L144,128 L32,128 z M0,64 C0,28.7 28.7,0 64,0 L448,0 C483.3,0 512,28.7 512,64 L512,384 C512,419.3 483.3,448 448,448 L64,448 C28.7,448 0,419.3 0,384 L0,64 z" fill="#869AB8"/>
  </g>
</svg>
