<?xml version="1.0" encoding="UTF-8"?>
<!DOCTYPE svg PUBLIC "-//W3C//DTD SVG 1.1//EN" "http://www.w3.org/Graphics/SVG/1.1/DTD/svg11.dtd">
<svg version="1.1" xmlns="http://www.w3.org/2000/svg" xmlns:xlink="http://www.w3.org/1999/xlink" x="0" y="0" width="768" height="1024" viewBox="0, 0, 384, 512">
  <g id="Background">
    <rect x="0" y="0" width="384" height="512" fill="#000000" fill-opacity="0"/>
  </g>
  <g id="Layer_1">
    <path d="M64,32 C46.3,32 32,46.3 32,64 L32,448 C32,465.7 46.3,480 64,480 L320,480 C337.7,480 352,465.7 352,448 L352,64 C352,46.3 337.7,32 320,32 L64,32 z M0,64 C0,28.7 28.7,0 64,0 L320,0 C355.3,0 384,28.7 384,64 L384,448 C384,483.3 355.3,512 320,512 L64,512 C28.7,512 0,483.3 0,448 L0,64 z M80,128 L304,128 C312.8,128 320,135.2 320,144 C320,152.8 312.8,160 304,160 L80,160 C71.2,160 64,152.8 64,144 C64,135.2 71.2,128 80,128 z M80,224 L304,224 C312.8,224 320,231.2 320,240 C320,248.8 312.8,256 304,256 L80,256 C71.2,256 64,248.8 64,240 C64,231.2 71.2,224 80,224 z M80,320 L208,320 C216.8,320 224,327.2 224,336 C224,344.8 216.8,352 208,352 L80,352 C71.2,352 64,344.8 64,336 C64,327.2 71.2,320 80,320 z" fill="#869AB8"/>
  </g>
</svg>
